<?xml version="1.0" standalone="no"?>
<!DOCTYPE svg PUBLIC "-//W3C//DTD SVG 1.1//EN" "http://www.w3.org/Graphics/SVG/1.1/DTD/svg11.dtd" >
<svg xmlns="http://www.w3.org/2000/svg">
<metadata></metadata>
<defs>
<font id="ancillarybold" horiz-adv-x="522" >
<font-face units-per-em="2048" ascent="1638" descent="-410" />
<missing-glyph horiz-adv-x="593" />
<glyph unicode="&#xfb01;" horiz-adv-x="1394" d="M82 788l20 236h91v82q0 96 15 171.5t41.5 126.5t67 85t85.5 52t104 24t115.5 2.5t126.5 -13.5l45 -225q-87 21 -150 23.5t-105 -11t-67 -46.5t-35 -78.5t-10 -110.5v-82h311l-20 -236h-291q0 -12 1 -219t1 -569h-235v788h-111zM985 1317q0 55 38.5 94t94.5 39t94.5 -39 t38.5 -94t-38.5 -94t-94.5 -39t-94.5 39t-38.5 94zM1001 0v993l234 51v-1044h-234z" />
<glyph horiz-adv-x="2048" />
<glyph horiz-adv-x="2048" />
<glyph unicode="&#xd;" horiz-adv-x="2048" />
<glyph unicode=" "  horiz-adv-x="593" />
<glyph unicode="&#x09;" horiz-adv-x="593" />
<glyph unicode="&#xa0;" horiz-adv-x="593" />
<glyph unicode="!" horiz-adv-x="561" d="M143 1536h275l-51 -1126h-172zM147 119q0 55 39 94t95 39q55 0 94 -39t39 -94q0 -54 -39 -93.5t-94 -39.5t-94.5 39.5t-39.5 93.5z" />
<glyph unicode="&#x22;" horiz-adv-x="661" d="M61 1260l99 419h256l-160 -419h-195zM389 1260l98 419h256l-159 -419h-195z" />
<glyph unicode="#" horiz-adv-x="1363" d="M-20 297l53 235h260l57 256h-262l53 236h260l66 297h244l-66 -297h236l65 297h242l-66 -297h262l-51 -236h-262l-57 -256h262l-51 -235h-262l-66 -297h-242l66 297h-236l-65 -297h-244l66 297h-262zM537 532h235l57 256h-235z" />
<glyph unicode="$" horiz-adv-x="1222" d="M102 1110q0 90 22.5 163t59.5 121t89.5 82t107.5 51.5t119 24.5v148h235v-154q154 -21 312 -90l53 -266q-175 88 -365 121v-461q20 -6 56 -17t45 -14q127 -41 205.5 -150t78.5 -243q0 -89 -21.5 -160.5t-57 -119.5t-86 -82t-104.5 -52t-116 -26v-150h-235v152 q-168 23 -324 92l-53 266q184 -94 377 -123v459q-43 11 -113 35q-131 46 -208 152.5t-77 240.5zM338 1110q0 -111 162 -182v383q-162 -39 -162 -201zM735 227q150 42 150 199q0 108 -150 174v-373z" />
<glyph unicode="%" horiz-adv-x="1589" d="M82 1171q0 158 101 263.5t257 105.5t257.5 -105.5t101.5 -263.5t-101.5 -263t-257.5 -105t-257 105t-101 263zM176 0l975 1536h276l-972 -1536h-279zM317 1171q0 -55 36 -94t87 -39t87 39t36 94q0 56 -36 95t-87 39t-87 -39t-36 -95zM791 348q0 158 101 263.5t257 105.5 t257 -105.5t101 -263.5t-101 -263t-257 -105t-257 105t-101 263zM1026 348q0 -55 36 -94t87 -39t87 39t36 94t-36 94t-87 39t-87 -39t-36 -94z" />
<glyph unicode="&#x26;" horiz-adv-x="1366" d="M82 356q0 129 80.5 256t195.5 201q-149 194 -149 363q0 158 106.5 269t262.5 111t262 -111t106 -269q-2 -32 -10.5 -63t-27.5 -64.5t-32.5 -56t-46 -59.5t-45 -51.5t-51.5 -55t-47 -48.5l221 -284q43 58 74 249l219 -71q-15 -87 -57.5 -202t-81.5 -171l233 -299h-301 l-94 121q-71 -68 -167 -109t-200 -41q-128 0 -228 42t-161 130.5t-61 212.5zM317 356q0 -58 36.5 -94t85.5 -47.5t112 -11.5q44 0 107.5 22t105.5 68l-266 344q-95 -75 -138 -137t-43 -144zM444 1178q0 -48 32.5 -114.5t68.5 -105.5q166 148 166 218q0 60 -38 102.5 t-95 42.5q-56 0 -95 -42t-39 -101z" />
<glyph unicode="'" horiz-adv-x="333" d="M61 1260l99 419h256l-160 -419h-195z" />
<glyph unicode="(" horiz-adv-x="538" d="M89.5 1078q62.5 382 244.5 663h213q-120 -204 -181 -482.5t-58.5 -562t67 -562t184.5 -482.5h-215q-183 282 -250 663t-4.5 763z" />
<glyph unicode=")" horiz-adv-x="538" d="M-20 -348q120 204 184.5 482.5t67 562t-58.5 562t-181 482.5h213q182 -281 244.5 -663t-4.5 -763t-250 -663h-215z" />
<glyph unicode="*" horiz-adv-x="968" d="M109 1053l180 104l-180 105l96 170l182 -105v209h195v-209l182 105l96 -170l-180 -105l180 -104l-96 -170l-182 104v-209h-195v209l-182 -104z" />
<glyph unicode="+" horiz-adv-x="1181" d="M61 494v235h412v412h236v-412h411v-235h-411v-412h-236v412h-412z" />
<glyph unicode="," horiz-adv-x="471" d="M-20 -201l163 420h277l-225 -420h-215z" />
<glyph unicode="-" horiz-adv-x="819" d="M82 494v235h655v-235h-655z" />
<glyph unicode="." horiz-adv-x="512" d="M102 133q0 63 45 108.5t109 45.5q63 0 108.5 -45.5t45.5 -108.5q0 -64 -45.5 -108.5t-108.5 -44.5q-65 0 -109.5 44.5t-44.5 108.5z" />
<glyph unicode="/" horiz-adv-x="880" d="M41 -117l596 1755h248l-594 -1755h-250z" />
<glyph unicode="0" horiz-adv-x="1187" d="M82 662q0 185 68.5 341.5t186.5 247t257 90.5t257 -90.5t186.5 -247t68.5 -341.5t-68.5 -342.5t-186.5 -248.5t-257 -91t-257 91t-186.5 248.5t-68.5 342.5zM317 662q0 -186 81 -316.5t196 -130.5t195.5 130.5t80.5 316.5q0 185 -80.5 314.5t-195.5 129.5t-196 -129.5 t-81 -314.5z" />
<glyph unicode="1" horiz-adv-x="595" d="M82 881l57 293l334 167v-1341h-235v958z" />
<glyph unicode="2" horiz-adv-x="1116" d="M102 0q0 139 53.5 266.5t135.5 225.5q57 67 149 129.5t162 99.5t123 87t53 105q0 84 -40 133.5t-106.5 62t-153.5 -1t-181 -49.5t-188 -89l51 256q52 38 185 77t226 39q88 0 166 -26t141 -78t99.5 -138t36.5 -196q0 -46 -18.5 -91t-45 -80t-71.5 -74.5t-82 -66t-92 -63.5 q-2 -1 -38 -23.5t-57.5 -37t-59.5 -44.5t-61.5 -55.5t-44.5 -61.5t-26 -70h594l-51 -236h-859z" />
<glyph unicode="3" horiz-adv-x="1034" d="M102 289q59 -33 137.5 -55t157.5 -26.5t146.5 7.5t110 49.5t42.5 95.5q0 69 -81 126.5t-205 72.5v195q124 15 205 72t81 126q0 58 -42.5 95.5t-110 49.5t-146.5 8t-157.5 -26t-137.5 -55l54 252q82 31 171 45t175.5 10.5t164 -29t136.5 -69.5t94 -116.5t35 -164.5 q0 -103 -41 -172t-143 -123q102 -53 143 -123.5t41 -173.5q0 -110 -49 -191t-130 -123t-182.5 -57.5t-208.5 -2t-206 50.5z" />
<glyph unicode="4" horiz-adv-x="1085" d="M66 256l559 1085l229 -51v-798h160l-51 -236h-109v-256h-236v256h-552zM453 492h165v321z" />
<glyph unicode="5" horiz-adv-x="1064" d="M127 592l43 729h717l51 -236h-545l-12 -239q123 10 221.5 -9.5t163 -60t107 -100.5t61 -128.5t18.5 -146.5q0 -108 -45 -193t-121.5 -134.5t-174 -73.5t-207 -15.5t-216.5 46.5l-51 239q60 -31 136 -49.5t153.5 -17.5t143 21t106.5 71t41 127q0 67 -30 110.5t-97.5 67.5 t-182.5 22t-280 -30z" />
<glyph unicode="6" horiz-adv-x="1058" d="M82 535q0 776 502 806q111 6 266 -22l51 -246q-113 36 -201.5 44t-149 -7t-104.5 -53.5t-69 -88.5t-41 -118q66 44 140.5 59t145 3t135.5 -51t113.5 -97.5t77.5 -141.5t29 -178q0 -193 -128.5 -328.5t-322.5 -135.5q-108 0 -193.5 42.5t-139.5 118t-82.5 175.5t-28.5 219 zM311 444q0 -95 59.5 -162t155.5 -67q105 0 160 60t55 169q0 113 -53.5 183.5t-161.5 70.5q-55 0 -97.5 -22.5t-67.5 -59.5t-37.5 -81t-12.5 -91z" />
<glyph unicode="7" horiz-adv-x="966" d="M27 1085l51 236h862l-451 -1323h-253l378 1087h-587z" />
<glyph unicode="8" horiz-adv-x="1105" d="M84 424q0 96 45 188t121 156q-76 89 -76 201q0 161 113 266.5t266 105.5q98 0 184.5 -46t140.5 -132.5t54 -193.5q0 -110 -78 -201q77 -62 122.5 -155t45.5 -189q0 -119 -60 -220.5t-168.5 -162.5t-240.5 -61q-133 0 -241 61t-168 162.5t-60 220.5zM319 424 q0 -89 68.5 -149t165.5 -60t165 60t68 149q0 96 -68.5 160.5t-164.5 64.5q-97 0 -165.5 -64.5t-68.5 -160.5zM410 977q0 -46 44 -69t99 -23q57 0 100 22.5t43 69.5q0 66 -42.5 97.5t-100.5 31.5q-55 0 -99 -32t-44 -97z" />
<glyph unicode="9" horiz-adv-x="1058" d="M82 877q0 126 57 232t161 169t232 63q143 0 245.5 -74.5t151 -198t48.5 -282.5q0 -776 -502 -806q-111 -6 -266 22l-51 246q113 -36 201.5 -44t149 7t104.5 53.5t69 88.5t41 118q-66 -44 -140.5 -59t-145 -3t-135.5 51t-113.5 97.5t-77.5 141.5t-29 178zM317 877 q0 -113 53.5 -183.5t161.5 -70.5q72 0 122.5 39t72 95t21.5 120q0 95 -60 162t-156 67q-105 0 -160 -60t-55 -169z" />
<glyph unicode=":" horiz-adv-x="389" d="M41 133q0 63 45 108.5t109 45.5q63 0 108 -45.5t45 -108.5q0 -64 -45 -108.5t-108 -44.5q-65 0 -109.5 44.5t-44.5 108.5zM41 831q0 63 45 108.5t109 45.5q63 0 108 -45.5t45 -108.5q0 -64 -45 -108.5t-108 -44.5q-65 0 -109.5 44.5t-44.5 108.5z" />
<glyph unicode=";" horiz-adv-x="481" d="M-20 -201l163 420h277l-225 -420h-215zM123 829q0 63 44.5 108.5t108.5 45.5q63 0 108.5 -45.5t45.5 -108.5q0 -64 -45.5 -108.5t-108.5 -44.5q-64 0 -108.5 44t-44.5 109z" />
<glyph unicode="&#x3c;" horiz-adv-x="1277" d="M61 592l1033 -533v242l-564 291l564 293v243z" />
<glyph unicode="=" horiz-adv-x="1064" d="M61 287v235h943v-235h-943zM61 655v236h943v-236h-943z" />
<glyph unicode="&#x3e;" horiz-adv-x="1124" d="M61 125l1033 532l-1033 537v-244l564 -293l-564 -290v-242z" />
<glyph unicode="?" horiz-adv-x="968" d="M0 1159l49 275q72 41 188.5 76.5t206.5 35.5q95 0 175 -28t140 -82t94 -139.5t34 -194.5q0 -64 -20.5 -122t-54.5 -103.5t-75 -88.5t-84 -85t-80 -84.5t-64.5 -96.5t-35.5 -112h-194q-8 70 8 135.5t48 117t73 99.5t83.5 90.5t78.5 82t58.5 82.5t22.5 85q0 97 -51.5 153.5 t-138.5 65.5t-208 -32t-253 -130zM244 119q0 55 39 94t94 39t94 -39t39 -94q0 -54 -39 -93.5t-94 -39.5t-94 39.5t-39 93.5z" />
<glyph unicode="@" horiz-adv-x="2068" d="M82 512q0 194 75 370t202.5 303.5t304 203t370.5 75.5t370.5 -75.5t304 -203t203 -303.5t75.5 -370q0 -116 -27 -209.5t-72 -153t-103.5 -99t-123 -52t-128 -8t-120.5 29.5t-100 64q-57 -50 -144 -74t-147 -24q-141 0 -251.5 71.5t-169 190.5t-58.5 264q0 107 34.5 203 t96 167.5t152 113.5t196.5 42q129 0 199 -55v61l235 -51v-624q0 -73 59 -106q59 -31 123 2q85 43 107 169q6 36 6 78q0 146 -56.5 278.5t-152.5 228.5t-229 153t-279 57q-145 0 -278 -57t-229 -153t-153 -229t-57 -278t57 -278t153 -229t229 -153t278 -57q187 0 344 88 l-73 -278q-155 -45 -271 -45q-195 0 -371 75t-303.5 202.5t-202.5 303.5t-75 371zM778 512q0 -122 68 -198t176 -76q55 0 111.5 19.5t87.5 47.5v402q-74 79 -199 79q-107 0 -175.5 -76.5t-68.5 -197.5z" />
<glyph unicode="A" horiz-adv-x="1587" d="M27 0l690 1536h153l691 -1536h-258l-162 360h-695l-161 -360h-258zM553 596h481l-239 534z" />
<glyph unicode="B" horiz-adv-x="1292" d="M123 0v1536h582q205 0 334.5 -119t129.5 -332q0 -93 -47.5 -174.5t-93.5 -111.5q80 -36 131 -127t51 -221q0 -67 -19 -130.5t-61 -122t-102.5 -102.5t-149.5 -70t-196 -26h-272h-287zM369 236h313q293 0 293 215q0 51 -18 91t-45.5 64t-65 39.5t-72.5 21t-72 5.5h-333 v-436zM369 907h313q47 0 89 9t80 28.5t60.5 55.5t22.5 85q0 100 -64.5 156t-185.5 59h-315v-393z" />
<glyph unicode="C" horiz-adv-x="1218" d="M82 764q0 171 55 318t146.5 247t210.5 157.5t247 61.5h19q155 0 330 -45l47 -243q-119 40 -225 48q-34 3 -65 2q-67 0 -123 -12q-82 -18 -149.5 -56.5t-114.5 -92t-80 -118t-48 -132t-15 -135.5t15 -135.5t48 -132t80 -118t115 -92.5q67 -38 149 -56q55 -12 123 -12 q31 0 65 2q106 8 225 48l-47 -243q-175 -45 -330 -45h-19q-128 4 -247 61.5t-210.5 157.5t-146.5 247t-55 318z" />
<glyph unicode="D" horiz-adv-x="1423" d="M123 0v1536h545q154 0 273 -43t193.5 -114t122 -172.5t66 -208t18.5 -230.5q0 -356 -178 -562t-481 -206h-559zM358 236h324q131 0 228 69.5t146.5 189.5t49.5 273q0 84 -11 156.5t-41 143.5t-77.5 121t-125.5 80.5t-179 30.5h-314v-1064z" />
<glyph unicode="E" horiz-adv-x="1275" d="M123 0v1536h999l52 -236h-816v-413h666v-236h-666v-415h816l-52 -236h-999z" />
<glyph unicode="F" horiz-adv-x="1234" d="M123 0v1536h999l52 -236h-816v-413h646v-236h-646v-651h-235z" />
<glyph unicode="G" horiz-adv-x="1269" d="M82 764q0 171 55 318t146.5 247t210.5 157.5t247 61.5h30q184 0 359 -45l48 -243q-131 43 -246 54q-44 4 -84 4q-65 0 -118 -11q-86 -18 -156.5 -57t-117.5 -94t-79 -121t-46 -134t-14 -137q0 -84 24.5 -167.5t73.5 -160.5t123.5 -130.5t173.5 -75.5q48 -11 102 -11 q57 0 122 12v476l235 -52v-606q-112 -52 -237 -67q-55 -7 -108 -7q-70 0 -138 11q-120 20 -230.5 81.5t-193.5 155t-132.5 233.5t-49.5 308z" />
<glyph unicode="H" horiz-adv-x="1433" d="M123 0v1536h235v-649h717v649h236v-1536h-236v651h-717v-651h-235z" />
<glyph unicode="I" d="M143 0v1536h236v-1536h-236z" />
<glyph unicode="J" horiz-adv-x="813" d="M43 233q53 -21 111 -23h11q52 0 100 18q53 20 96 56t68.5 95.5t25.5 132.5v1024h235v-1024q0 -108 -30 -201t-84 -159.5t-128.5 -110t-163.5 -51.5q-25 -3 -50 -3q-67 0 -140 17z" />
<glyph unicode="K" horiz-adv-x="1402" d="M123 0v1536h235v-649l633 649h330l-608 -625l602 -911h-283l-487 737l-187 -188v-549h-235z" />
<glyph unicode="L" horiz-adv-x="1187" d="M123 0v1536h235v-1300h779l-52 -236h-962z" />
<glyph unicode="M" horiz-adv-x="1667" d="M123 0v1536h153l558 -920l557 920h153v-1536h-235v946l-475 -774l-476 774v-946h-235z" />
<glyph unicode="N" horiz-adv-x="1497" d="M123 0v1536h153l863 -1057v1057h235v-1536h-153l-863 1059v-1059h-235z" />
<glyph unicode="O" horiz-adv-x="1572" d="M82 768q0 161 55.5 307.5t149.5 253t224.5 169.5t274.5 63q143 0 273.5 -63t225 -169.5t150.5 -253t56 -307.5t-56 -308t-150.5 -253t-225 -169t-273.5 -63q-144 0 -274.5 63t-224.5 169t-149.5 253t-55.5 308zM315 768q0 -114 37.5 -217t100.5 -177.5t150 -118.5 t183 -44t183 44t150 118.5t100.5 177.5t37.5 217q0 151 -63 279.5t-171.5 203t-236.5 74.5t-236.5 -74.5t-171.5 -203t-63 -279.5z" />
<glyph unicode="P" horiz-adv-x="1196" d="M123 0v1536h452q97 0 176.5 -15t134.5 -40.5t97 -62.5t66.5 -77t39.5 -89t20 -93t5 -94q0 -61 -14 -123.5t-55 -134.5t-104.5 -126.5t-173.5 -91t-251 -36.5h-158v-553h-235zM358 788h172q95 0 165 23t109 63.5t57 88t18 102.5q0 125 -78.5 180t-225.5 55h-217v-512z" />
<glyph unicode="Q" horiz-adv-x="1542" d="M82 768q0 161 55.5 307.5t149.5 253t224.5 169.5t274.5 63q143 0 273.5 -63t225 -169.5t150.5 -253t56 -307.5q0 -233 -109 -425t-290 -290q94 -115 222 -115q31 0 64 7l-80 -199q-38 -9 -76 -9q-69 0 -136 31q-104 47 -230 212q-57 -5 -70 -5q-144 0 -274.5 63 t-224.5 169t-149.5 253t-55.5 308zM315 768q0 -114 37.5 -217t100.5 -177.5t150 -118.5t183 -44t183 44t150 118.5t100.5 177.5t37.5 217q0 151 -63 279.5t-171.5 203t-236.5 74.5t-236.5 -74.5t-171.5 -203t-63 -279.5z" />
<glyph unicode="R" horiz-adv-x="1271" d="M123 0v1536h452q97 0 176.5 -15t134.5 -40.5t97 -62.5t66.5 -77t39.5 -89t20 -93t5 -94q0 -52 -11.5 -106.5t-37.5 -115t-77 -116t-120 -94.5l322 -633h-264l-285 561q-52 -8 -125 -8h-158v-553h-235zM358 788h172q95 0 165 23t109 63.5t57 88t18 102.5q0 125 -78.5 180 t-225.5 55h-217v-512z" />
<glyph unicode="S" horiz-adv-x="1222" d="M102 1110q0 102 28.5 181t74.5 128t110 80.5t128.5 43.5t136.5 13h13q227 0 454 -100l53 -266q-81 41 -177 74q-97 32 -201 48q-66 10 -123 10q-34 0 -66 -4q-85 -10 -140 -62t-55 -146q0 -36 15.5 -67.5t47 -55.5t66 -43t85.5 -37t92 -30.5t99 -29t93 -28.5 q127 -41 205.5 -150t78.5 -243q0 -102 -28.5 -181t-74 -128t-109.5 -80.5t-128.5 -43.5t-136.5 -13h-13q-227 0 -454 100l-53 266q81 -41 177 -73.5t200 -48.5q66 -10 124 -10q34 0 66 4q85 10 140 62t55 146q0 36 -16 67.5t-48 55.5t-67.5 43t-86 36.5t-92 30.5t-97.5 29.5 t-91 28.5q-131 46 -208 152.5t-77 240.5z" />
<glyph unicode="T" horiz-adv-x="1402" d="M61 1300v236h1280v-236h-522v-1300h-235v1300h-523z" />
<glyph unicode="U" horiz-adv-x="1433" d="M123 573v963h235v-963q0 -164 98 -263t259 -99q162 0 261 98t99 262v965h236v-965q0 -158 -75.5 -294t-213.5 -219t-307 -83t-306 83.5t-211.5 220t-74.5 294.5z" />
<glyph unicode="V" horiz-adv-x="1587" d="M27 1536h258l510 -1130l508 1130h258l-691 -1536h-153z" />
<glyph unicode="W" horiz-adv-x="1921" d="M27 1536h252l383 -1067l299 827l296 -827l385 1067h252l-559 -1536h-153l-221 608l-222 -608h-153z" />
<glyph unicode="X" horiz-adv-x="1374" d="M27 0l518 768l-518 768h286l375 -557l373 557h287l-519 -768l519 -768h-285l-375 557l-377 -557h-284z" />
<glyph unicode="Y" horiz-adv-x="1429" d="M27 1536h276l412 -666l413 666h275l-569 -928v-608h-236v608z" />
<glyph unicode="Z" horiz-adv-x="1353" d="M82 1300l51 236h1118l-741 -1300h762l-51 -236h-1119l748 1300h-768z" />
<glyph unicode="[" horiz-adv-x="614" d="M61 -348v2089h553l52 -236h-369v-1618h369l-52 -235h-553z" />
<glyph unicode="\" horiz-adv-x="880" d="M-4 1638h248l596 -1755h-250z" />
<glyph unicode="]" horiz-adv-x="614" d="M-51 -113h368v1618h-368l51 236h553v-2089h-553z" />
<glyph unicode="^" horiz-adv-x="1159" d="M51 987l529 565l528 -565l-203 -188l-325 348l-326 -348z" />
<glyph unicode="_" horiz-adv-x="1208" d="M0 0h1208v-215h-1208v215z" />
<glyph unicode="`" horiz-adv-x="727" d="M102 1804h297l226 -317h-236z" />
<glyph unicode="a" horiz-adv-x="1011" d="M82 315q0 98 42.5 171t116.5 111q74 39 174 47q22 2 44 2q81 0 172 -25q0 58 -13 97.5t-44 61.5q-31 24 -68 34q-30 8 -75 8h-22q-60 -2 -119 -11t-145 -25l43 220q49 14 102.5 22.5t116.5 10.5h28q48 0 94 -5q59 -7 115.5 -29.5t99 -58.5t71.5 -95.5t35 -137.5 q1 -22 1 -47q0 -33 -2 -71q-5 -66 -7 -112q-1 -18 0 -36q0 -29 2 -61q4 -51 25 -99t61 -94l-74 -213q-59 7 -131 83q-51 -39 -123 -60t-135 -21q-101 0 -178 29t-120.5 78t-65 106t-21.5 120zM317 315q0 -63 47 -93q35 -22 86 -23q16 0 36 3q76 10 157 56q-16 76 -16 156 q-57 19 -109 26q-28 4 -55 4q-23 0 -44 -3q-47 -6 -74.5 -38t-27.5 -88z" />
<glyph unicode="b" horiz-adv-x="1097" d="M123 0v1618l233 51v-678q120 49 223 49q21 0 42 -2q121 -12 208.5 -76t137 -181t49.5 -269q0 -138 -32.5 -244t-86.5 -166q-53 -62 -123 -94q-67 -32 -139 -31h-5q-74 1 -144.5 26t-129.5 73v-76h-233zM356 354q68 -74 134 -108q56 -29 101 -29q7 0 15 1q52 6 91.5 41.5 t61 101t21.5 151.5q0 115 -51.5 193.5t-145.5 93.5q-15 2 -30 2q-84 0 -197 -68v-379z" />
<glyph unicode="c" horiz-adv-x="935" d="M82 510q0 195 91 333q91 139 252 183q62 17 133 16q113 0 249 -43l47 -251q-109 57 -209 67q-24 2 -46 2q-71 -1 -126 -25q-72 -32 -115 -105.5t-43 -176.5q0 -82 27 -146t77.5 -102t116.5 -52q31 -7 65 -7q39 1 83 9q82 16 170 62l-47 -251q-136 -44 -250 -44 q-70 0 -132 17q-161 44 -252 181.5t-91 332.5z" />
<glyph unicode="d" horiz-adv-x="1097" d="M82 512q0 152 49 269t137 181t208 76q20 2 42 2q103 0 223 -49v627l234 51v-1669h-232v76q-59 -48 -131 -73t-146 -26h-4q-71 -1 -138 31q-69 32 -123 93t-86.5 167t-32.5 244zM317 512q0 -86 21.5 -151.5t61.5 -100.5q38 -36 90 -42q8 -1 16 -1q46 -1 102 29 q66 34 133 108v379q-112 68 -197 68q-16 0 -30 -2q-94 -15 -145.5 -93.5t-51.5 -193.5z" />
<glyph unicode="e" horiz-adv-x="1105" d="M82 510q0 240 134.5 387t361.5 147q114 0 202 -42t138 -111t76 -157q22 -77 23 -157q-1 -11 -1 -23q-4 -92 -31 -179h-645q13 -63 70.5 -106t139.5 -59q41 -8 88 -8q46 0 97 8q103 16 201 64l-31 -251q-133 -37 -247 -44q-31 -2 -58 -2q-77 0 -138 14q-83 19 -149 58.5 t-108.5 92t-71 116t-40 126t-11.5 126.5zM328 610h450q1 8 1 17q-1 62 -53 117q-60 63 -148 63q-200 0 -250 -197z" />
<glyph unicode="f" horiz-adv-x="829" d="M74 788l20 236h90v82q0 96 15 171.5t41.5 126.5t67 85t85.5 52t104 24q37 4 74 4q21 0 41 -1q57 -4 127 -14l45 -225q-87 21 -150 23q-10 1 -19 1q-50 0 -85 -11q-42 -14 -67 -47t-35 -78.5t-10 -110.5v-82h311l-20 -236h-291q0 -12 1 -219t1 -569h-236v788h-110z" />
<glyph unicode="g" horiz-adv-x="1097" d="M82 512q0 152 49 269t137 181t208 76q21 2 42 2q103 0 223 -49v56l234 -43v-1004q0 -313 -202 -432q-103 -62 -258 -62q-148 0 -343 56l-43 272q227 -90 370 -90q242 0 244 256v76q-59 -48 -131 -73t-146 -26h-4q-71 0 -138 31q-69 33 -123 93.5t-86.5 166.5t-32.5 244z M317 512q0 -107 34 -178t91 -96q26 -11 57 -11q36 0 78 15q79 28 164 112v379q-112 68 -197 68q-15 0 -30 -2q-94 -15 -145.5 -93.5t-51.5 -193.5z" />
<glyph unicode="h" horiz-adv-x="1064" d="M102 0v1608l236 61v-747q59 66 132 100q68 31 133 32h10q70 -2 134.5 -28.5t113 -76.5t71.5 -113q25 -71 33 -127t8 -160v-549h-236v549q0 63 -14.5 119.5t-46.5 96.5q-32 41 -77 51q-10 2 -21 2q-39 0 -92 -28q-68 -36 -148 -126v-664h-236z" />
<glyph unicode="i" horiz-adv-x="552" d="M143 1317q0 55 38.5 94t94.5 39t95 -39t39 -94t-39 -94t-95 -39t-94.5 39t-38.5 94zM160 0v993l233 51v-1044h-233z" />
<glyph unicode="j" horiz-adv-x="583" d="M-98 -256q34 -4 64 -4q48 0 86 10q60 18 91 45.5t46 94t17.5 112t2.5 141.5v848l235 53v-901q0 -93 -2 -150t-11.5 -136t-28 -126.5t-53 -100t-84 -78.5t-123.5 -40q-45 -8 -98 -8q-35 0 -73 4zM195 1317q0 55 38.5 94t94.5 39t94.5 -39t38.5 -94t-38.5 -94t-94.5 -39 t-94.5 39t-38.5 94z" />
<glyph unicode="k" horiz-adv-x="1077" d="M123 0v1577l233 51v-897l330 309l277 -59l-365 -346l418 -635h-281l-311 471l-66 -61l-2 -35v-375h-233z" />
<glyph unicode="l" horiz-adv-x="520" d="M143 0v1618l234 51v-1669h-234z" />
<glyph unicode="m" horiz-adv-x="1546" d="M123 0v1004l235 40v-122q63 83 157 113q45 15 90 14q47 0 95 -16q92 -32 146 -120q100 83 192 115q62 22 113 21q25 0 48 -5q69 -16 120 -66t77.5 -130t26.5 -178v-670h-235v588q0 79 -20.5 131.5t-57.5 72.5q-17 9 -38 9q-24 0 -56 -13q-58 -24 -125 -94v-694h-236v608 q0 78 -23 126t-62 60q-12 4 -25 4q-31 0 -70 -20q-56 -30 -117 -102v-676h-235z" />
<glyph unicode="n" horiz-adv-x="1116" d="M123 0v993l235 51v-129q187 136 323 136h15q142 -8 219.5 -138.5t77.5 -349.5v-563h-235v563q0 69 -16.5 121.5t-50.5 80.5t-80.5 28t-112 -39t-140.5 -117v-637h-235z" />
<glyph unicode="o" horiz-adv-x="1179" d="M82 512q0 146 65 268t181.5 193t261.5 71t261.5 -71t181.5 -193t65 -268q0 -145 -65 -267t-182 -193.5t-261 -71.5t-261 71.5t-182 193.5t-65 267zM317 512q0 -123 79.5 -210t193.5 -87q113 0 192.5 87t79.5 210t-79.5 210t-192.5 87q-114 0 -193.5 -87t-79.5 -210z" />
<glyph unicode="p" horiz-adv-x="1097" d="M123 -573v1566l231 51v-83q59 48 131 73t145 26h5q71 0 139 -32q69 -33 123 -93.5t86.5 -166.5t32.5 -244q0 -122 -31.5 -223.5t-91 -171.5t-139.5 -109q-76 -36 -172 -36h-10q-103 2 -216 47v-553zM356 289q95 -60 177 -65h16q71 0 119 36q52 41 82 110t30 154 q0 86 -21.5 151.5t-61 101t-91.5 41.5q-7 1 -15 1q-46 0 -101 -29q-66 -35 -134 -108v-393z" />
<glyph unicode="q" horiz-adv-x="1097" d="M82 524q0 138 32.5 244t86.5 166.5t123 93.5q67 32 138 32h4q74 -1 145 -26t130 -73v83l234 -51v-1513l-234 -53v604q-113 -45 -215 -47h-11q-96 0 -172 36q-80 39 -139 109t-90.5 171.5t-31.5 223.5zM317 524q0 -85 30 -154t83 -110q47 -36 118 -36h16q82 5 177 65v393 q-68 73 -133 108q-56 29 -102 29q-8 0 -16 -1q-51 -6 -90.5 -41.5t-61 -101t-21.5 -151.5z" />
<glyph unicode="r" horiz-adv-x="919" d="M123 0v993l235 51v-88q60 60 148 80q53 12 104 12q34 0 66 -6q84 -14 153 -51l29 -250q-87 56 -177 70q-24 4 -47 4q-66 1 -130 -29q-87 -40 -146 -135v-651h-235z" />
<glyph unicode="s" horiz-adv-x="974" d="M86 741q0 78 36 138t95.5 93.5t127 49.5t140.5 16q88 0 184 -27t140 -55l53 -241q-102 61 -226 91q-75 18 -139 18q-41 0 -77 -8q-92 -20 -92 -93q0 -38 23 -61.5t64 -34.5t84 -16t96 -12.5t87 -18.5q105 -33 156 -102t51 -210q0 -78 -36 -138t-95.5 -93.5t-127.5 -49.5 t-141 -16q-88 0 -183.5 27t-139.5 55l-53 242q103 -61 227 -91q75 -18 138 -18q42 0 78 8q92 20 91 93q0 46 -38.5 71t-88.5 30.5t-119 15.5t-108 26q-52 21 -86 42.5t-63.5 56.5t-43.5 87t-14 125z" />
<glyph unicode="t" horiz-adv-x="866" d="M72 788l51 236h113v203l235 112v-315h330l-51 -236h-279v-436q0 -35 1 -53t6 -39.5t15 -29.5t27.5 -15t45.5 -3t66.5 12.5t92.5 25.5l-51 -246q-107 -24 -182 -25h-7q-71 -1 -119 19q-50 20 -78.5 69.5t-40 116.5t-11.5 168v436h-164z" />
<glyph unicode="u" horiz-adv-x="1095" d="M123 414v590l235 51v-639q0 -57 12 -103t41 -75.5t71 -30.5h2q42 0 107 42q66 43 146 132v643h236v-1024h-236v102q-121 -86 -223 -118q-63 -19 -113 -19q-31 -1 -59 7q-72 20 -122 79.5t-73.5 151.5t-23.5 211z" />
<glyph unicode="v" horiz-adv-x="1093" d="M27 1024h249l271 -639l270 639h250l-424 -1024h-192z" />
<glyph unicode="w" horiz-adv-x="1507" d="M27 1024h256l209 -524l208 524h107l209 -524l209 524h256l-412 -1024h-106l-209 518l-209 -518h-107z" />
<glyph unicode="x" horiz-adv-x="1118" d="M41 0l373 514l-373 512h293l225 -311l225 309h291l-370 -510l372 -512h-293l-225 309l-225 -311h-293z" />
<glyph unicode="y" horiz-adv-x="1056" d="M27 1024h245l256 -668l256 668h246l-444 -1186q-29 -75 -62 -129.5t-62.5 -86t-71.5 -53t-72 -30.5t-80 -20l-82 219q52 10 79 21t55.5 43t51 80t57.5 141z" />
<glyph unicode="z" horiz-adv-x="1075" d="M82 0l487 788h-487l51 236h860l-487 -788h487l-51 -236h-860z" />
<glyph unicode="{" horiz-adv-x="614" d="M63 621v153l50 41q22 19 26 110t4 390v160q0 150 58.5 208t208.5 58h204l52 -236h-256q-31 0 -31 -30v-609q0 -12 -1.5 -25t-3.5 -23t-6.5 -23.5t-7 -20.5t-9 -21.5t-9 -18.5t-10 -19l-8.5 -17q2 -5 10 -20.5t11 -22.5t10 -21.5t10 -25l7 -24.5t5.5 -28t1.5 -28v-610 q0 -31 31 -31h256l-52 -235h-204q-150 0 -208.5 58t-58.5 208v113q0 331 -4.5 430.5t-25.5 118.5z" />
<glyph unicode="|" d="M143 -307v1904h236v-1904h-236z" />
<glyph unicode="}" horiz-adv-x="614" d="M-51 -113h256q31 0 31 31v610q0 16 3 33.5t5.5 29t10.5 31t11 25.5t13.5 28t11.5 23l-8.5 17t-10 19t-9 18.5t-9 21.5t-7 20.5t-6.5 23.5t-3.5 23t-1.5 25v609q0 30 -31 30h-256l51 236h205q150 0 208 -58t58 -208v-134q0 -313 4.5 -409.5t26.5 -116.5l49 -41v-153 l-49 -41q-22 -19 -26.5 -124t-4.5 -458v-80q0 -150 -58 -208t-208 -58h-205z" />
<glyph unicode="~" horiz-adv-x="860" d="M20 469l52 229q169 81 317 29q148 -51 238.5 -44.5t212.5 73.5l-52 -228q-168 -79 -317 -30q-150 49 -240.5 43t-210.5 -72z" />
<glyph unicode="&#xa1;" horiz-adv-x="602" d="M143 -440l72 1188h172l72 -1188h-316zM168 1051q0 55 39 94t94 39t94 -39t39 -94q0 -54 -39 -93.5t-94 -39.5t-94 39.5t-39 93.5z" />
<glyph unicode="&#xa2;" horiz-adv-x="935" d="M82 653q0 197 93.5 336t256.5 182v111h236v-104q54 -7 139 -35l47 -252q-109 57 -209 67t-172 -22.5t-115 -106t-43 -176.5q0 -102 43 -175t115 -106t172 -22.5t209 68.5l-47 -252q-85 -28 -139 -35v-100h-236v106q-163 41 -256.5 179.5t-93.5 336.5z" />
<glyph unicode="&#xa3;" horiz-adv-x="1105" d="M61 0v236q82 22 127 105t45 189v129h-143v236h143v121q0 124 36.5 223.5t102 164t152 99t190.5 33.5t214 -37l51 -229q-101 42 -190.5 51t-162 -16t-115 -98.5t-42.5 -190.5v-121h236v-236h-236v-129q0 -100 -20 -177t-52 -117h627l-61 -236h-902z" />
<glyph unicode="&#xa4;" horiz-adv-x="1271" d="M88 272l152 150q-64 109 -64 233q0 125 64 234l-152 151l164 164l151 -151q108 63 234 63q125 0 233 -63l150 149l164 -164l-150 -149q64 -106 64 -234q0 -122 -62 -233l146 -146l-164 -165l-146 147q-108 -63 -235 -63q-126 0 -234 63l-149 -149zM412 655q0 -93 66 -159 t159 -66t159 66t66 159q0 94 -65.5 160t-159.5 66t-159.5 -66t-65.5 -160z" />
<glyph unicode="&#xa5;" horiz-adv-x="1470" d="M47 1536h277l411 -666l414 666h274l-477 -778h281v-215h-373v-92h373v-236h-373v-215h-236v215h-374v236h374v92h-374v215h282z" />
<glyph unicode="&#xa6;" d="M143 -307v799h236v-799h-236zM143 799v798h236v-798h-236z" />
<glyph unicode="&#xa7;" horiz-adv-x="964" d="M90 639q0 56 29 103.5t74 76.5q-47 37 -75 93t-28 116q0 66 23.5 118.5t61 85.5t89.5 54.5t105.5 30t111.5 8.5q94 0 186 -18.5t130 -42.5l51 -220q-60 24 -124.5 44t-137.5 32t-129.5 8t-93.5 -33t-37 -85q0 -27 23.5 -48t62 -34t88 -28.5t100.5 -30t100.5 -40t88 -57 t62 -83t23.5 -116.5q0 -56 -28.5 -103.5t-73.5 -76.5q47 -37 74.5 -93.5t27.5 -115.5q0 -66 -23.5 -118.5t-61 -85.5t-89.5 -54.5t-105.5 -30t-111.5 -8.5q-88 0 -179 27t-136 55l-51 209q52 -20 103 -36.5t113.5 -32.5t114.5 -19.5t96 3.5t69.5 35t25.5 75q0 34 -23.5 58 t-62 36.5t-88 26t-101 25t-101 34.5t-88 53t-62 82t-23.5 121zM324 621q0 -59 79 -88t158.5 -12t79.5 71q0 59 -79.5 88.5t-158.5 12.5t-79 -72z" />
<glyph unicode="&#xa8;" horiz-adv-x="716" d="M102 1589q0 42 30.5 72.5t72.5 30.5q43 0 72.5 -30t29.5 -73t-29.5 -72.5t-72.5 -29.5q-42 0 -72.5 30t-30.5 72zM410 1589q0 41 30.5 72t71.5 31q42 0 72 -30.5t30 -72.5q0 -43 -29.5 -72.5t-72.5 -29.5q-42 0 -72 30t-30 72z" />
<glyph unicode="&#xa9;" horiz-adv-x="1134" d="M82 1208q0 204 140.5 345t344.5 141q122 0 234 -64t182 -177t70 -245q0 -204 -141 -344.5t-345 -140.5q-132 0 -245 70t-176.5 181.5t-63.5 233.5zM201 1208q0 -152 107 -259t259 -107t259.5 107t107.5 259t-107.5 259.5t-259.5 107.5t-259 -107.5t-107 -259.5zM303 1208 q0 74 36 136.5t95 96.5t133.5 40.5t151.5 -31.5l16 -115q-45 29 -100.5 35t-102.5 -9.5t-78.5 -56t-31.5 -96.5t31.5 -96.5t78.5 -56t102.5 -9.5t100.5 35l-16 -114q-77 -38 -151.5 -32t-133.5 40t-95 96.5t-36 136.5z" />
<glyph unicode="&#xab;" horiz-adv-x="1228" d="M51 508l473 463l172 -176l-301 -287l301 -287l-172 -176zM492 508l473 463l172 -176l-301 -287l301 -287l-172 -176z" />
<glyph unicode="&#xac;" horiz-adv-x="1064" d="M61 666v235h943v-563h-236v328h-707z" />
<glyph unicode="&#xad;" horiz-adv-x="819" d="M82 494v235h655v-235h-655z" />
<glyph unicode="&#xae;" horiz-adv-x="1134" d="M82 1208q0 204 140.5 345t344.5 141q122 0 234 -64t182 -177t70 -245q0 -204 -141 -344.5t-345 -140.5q-132 0 -245 70t-176.5 181.5t-63.5 233.5zM201 1208q0 -152 107 -259t259 -107t259.5 107t107.5 259t-107.5 259.5t-259.5 107.5t-259 -107.5t-107 -259.5zM387 950 v512q79 5 147 1t117.5 -18.5t78 -54t28.5 -104.5q0 -21 -1.5 -36t-8 -37.5t-22 -41t-40.5 -30.5l96 -191h-125l-77 160q-33 -4 -74 -4v-156h-119zM506 1212q75 0 104 14.5t29 55.5q0 72 -133 61v-131z" />
<glyph unicode="&#xaf;" horiz-adv-x="1013" d="M102 1487v153h809v-153h-809z" />
<glyph unicode="&#xb0;" horiz-adv-x="532" d="M41 1323q0 95 65.5 160t159.5 65t160 -65t66 -160t-66 -160t-160 -65t-159.5 65t-65.5 160zM195 1323q0 -29 21 -50.5t50 -21.5t50.5 21.5t21.5 50.5t-21.5 50.5t-50.5 21.5t-50 -21.5t-21 -50.5z" />
<glyph unicode="&#xb1;" horiz-adv-x="1181" d="M61 0v215h1059v-215h-1059zM61 594v215h422v332h215v-332h422v-215h-422v-332h-215v332h-422z" />
<glyph unicode="&#xb4;" horiz-adv-x="727" d="M102 1487l226 317h297l-287 -317h-236z" />
<glyph unicode="&#xb5;" horiz-adv-x="1136" d="M123 -573v1577l235 51v-606q0 -49 18 -88.5t47.5 -63.5t67.5 -37.5t77 -13.5t77 13.5t67.5 37.5t47.5 63.5t18 88.5v575h236v-1024h-236v43q-80 -47 -199.5 -47t-199.5 47v-565z" />
<glyph unicode="&#xb6;" horiz-adv-x="1118" d="M66 1126q0 188 140 300t384 112h467v-102h-58v-1436h-102v1436h-72v-1436h-235v713q-244 0 -384 112.5t-140 300.5z" />
<glyph unicode="&#xb7;" horiz-adv-x="512" d="M102 541q0 63 45 108t109 45q63 0 108.5 -45t45.5 -108q0 -64 -45.5 -109t-108.5 -45q-64 0 -109 44.5t-45 109.5z" />
<glyph unicode="&#xb8;" horiz-adv-x="497" d="M102 -170q24 -14 68 -14q29 0 50.5 21t21.5 50q0 65 -103 99l33 129l16 65l138 -35l-19 -75q88 -68 88 -183q0 -95 -65.5 -160t-159.5 -65h-18z" />
<glyph unicode="&#xbb;" horiz-adv-x="1228" d="M92 221l301 287l-301 287l172 176l473 -463l-473 -463zM532 221l302 287l-302 287l173 176l473 -463l-473 -463z" />
<glyph unicode="&#xbf;" horiz-adv-x="968" d="M82 55q0 64 20.5 122.5t54.5 103.5t75 88t84 85t80 85t64.5 97t35.5 112h194q8 -70 -8 -136t-48 -117t-73.5 -99t-84 -90.5t-78.5 -82.5t-58.5 -83t-22.5 -85q0 -97 52 -153.5t138.5 -65.5t208 32t253.5 130l-49 -274q-73 -41 -189.5 -77t-206.5 -36q-196 0 -319 114.5 t-123 329.5zM459 1038q0 54 39 93.5t94 39.5t94 -39.5t39 -93.5q0 -56 -38.5 -94.5t-94.5 -38.5t-94.5 38.5t-38.5 94.5z" />
<glyph unicode="&#xc0;" horiz-adv-x="1587" d="M27 0l690 1536h153l691 -1536h-258l-162 360h-695l-161 -360h-258zM463 1968h297l225 -317h-235zM553 596h481l-239 534z" />
<glyph unicode="&#xc1;" horiz-adv-x="1587" d="M27 0l690 1536h153l691 -1536h-258l-162 360h-695l-161 -360h-258zM553 596h481l-239 534zM612 1651l226 317h297l-287 -317h-236z" />
<glyph unicode="&#xc2;" horiz-adv-x="1587" d="M27 0l690 1536h153l691 -1536h-258l-162 360h-695l-161 -360h-258zM414 1651l307 276h153l308 -276h-215l-168 145l-170 -145h-215zM553 596h481l-239 534z" />
<glyph unicode="&#xc3;" horiz-adv-x="1587" d="M27 0l690 1536h153l691 -1536h-258l-162 360h-695l-161 -360h-258zM391 1647l84 229q42 20 69 30.5t63.5 17.5t73.5 2t79 -21q71 -28 127.5 -38t113 -1t96.5 22.5t113 44.5l-77 -227q-44 -20 -71 -30.5t-64.5 -18.5t-75 -3t-80.5 21q-72 27 -129 37t-113 1.5t-96.5 -22.5 t-112.5 -44zM553 596h481l-239 534z" />
<glyph unicode="&#xc4;" horiz-adv-x="1587" d="M27 0l690 1536h153l691 -1536h-258l-162 360h-695l-161 -360h-258zM543 1774q0 42 30 72t72 30q43 0 73 -29.5t30 -72.5t-30 -73t-73 -30q-41 0 -71.5 30.5t-30.5 72.5zM553 596h481l-239 534zM850 1774q0 41 30.5 71.5t71.5 30.5q42 0 72.5 -30t30.5 -72q0 -43 -30 -73 t-73 -30q-42 0 -72 30.5t-30 72.5z" />
<glyph unicode="&#xc5;" horiz-adv-x="1587" d="M27 0l690 1536h153l691 -1536h-258l-162 360h-695l-161 -360h-258zM553 596h481l-239 534zM573 1876q0 95 66 160t160 65t159.5 -65t65.5 -160t-65.5 -160t-159.5 -65t-160 65t-66 160zM727 1876q0 -29 21.5 -50.5t50.5 -21.5t50 21.5t21 50.5t-21 50.5t-50 21.5 t-50.5 -21.5t-21.5 -50.5z" />
<glyph unicode="&#xc6;" horiz-adv-x="2121" d="M27 0l1073 1536h868l53 -236h-686v-413h584v-236h-584v-415h686l-53 -236h-868v360h-533l-252 -360h-288zM731 596h369v524z" />
<glyph unicode="&#xc7;" horiz-adv-x="1218" d="M82 764q0 171 55 318t146.5 247t210.5 157.5t247 61.5q163 3 349 -45l47 -243q-119 39 -225 47.5t-187.5 -9.5t-149.5 -56.5t-115 -92t-80 -118t-48 -132t-15 -135.5t15 -135.5t48 -132t80 -118t115 -92t149.5 -56.5t187.5 -9.5t225 47.5l-47 -243q-168 -45 -310 -45 l-6 -23q88 -68 88 -182q0 -95 -65.5 -160.5t-159.5 -65.5h-19l-49 168q25 -14 68 -14q29 0 50.5 21.5t21.5 50.5q0 10 -2.5 20t-7 17.5t-10.5 14.5t-12.5 12.5t-14.5 10t-14.5 8t-14 6.5t-12 4.5t-9.5 3.5l-6 1l31 119q-113 24 -213 89t-176.5 162.5t-121 232.5t-44.5 288z " />
<glyph unicode="&#xc8;" horiz-adv-x="1232" d="M102 0v1536h1000l51 -236h-815v-413h666v-236h-666v-415h815l-51 -236h-1000zM279 1968h296l226 -317h-236z" />
<glyph unicode="&#xc9;" horiz-adv-x="1275" d="M123 0v1536h999l52 -236h-816v-413h666v-236h-666v-415h816l-52 -236h-999zM489 1651l226 317h297l-287 -317h-236z" />
<glyph unicode="&#xca;" horiz-adv-x="1275" d="M123 0v1536h999l52 -236h-816v-413h666v-236h-666v-415h816l-52 -236h-999zM236 1651l307 276h153l308 -276h-216l-167 145l-170 -145h-215z" />
<glyph unicode="&#xcb;" horiz-adv-x="1275" d="M123 0v1536h999l52 -236h-816v-413h666v-236h-666v-415h816l-52 -236h-999zM371 1774q0 42 30 72t72 30q43 0 72.5 -29.5t29.5 -72.5t-29.5 -73t-72.5 -30q-41 0 -71.5 30.5t-30.5 72.5zM678 1774q0 41 30.5 71.5t71.5 30.5q42 0 72.5 -30t30.5 -72q0 -43 -30 -73 t-73 -30q-42 0 -72 30.5t-30 72.5z" />
<glyph unicode="&#xcc;" d="M-92 1968h297l225 -317h-235zM143 0v1536h236v-1536h-236z" />
<glyph unicode="&#xcd;" d="M92 1651l225 317h297l-286 -317h-236zM143 0v1536h236v-1536h-236z" />
<glyph unicode="&#xce;" d="M-123 1651l307 276h154l307 -276h-215l-168 145l-170 -145h-215zM143 0v1536h236v-1536h-236z" />
<glyph unicode="&#xcf;" d="M4 1774q0 42 31.5 72t73.5 30q43 0 72.5 -29.5t29.5 -72.5t-29.5 -73t-72.5 -30q-42 0 -73.5 30.5t-31.5 72.5zM143 0v1536h236v-1536h-236zM313 1774q0 41 31 71.5t72 30.5q42 0 72 -30t30 -72q0 -43 -29.5 -73t-72.5 -30q-42 0 -72.5 30.5t-30.5 72.5z" />
<glyph unicode="&#xd0;" horiz-adv-x="1572" d="M102 657v215h170v664h545q154 0 273 -43t193.5 -114t122.5 -172.5t66.5 -208t18.5 -230.5q0 -356 -178 -562t-482 -206h-559v657h-170zM508 236h323q131 0 228 69.5t146.5 189.5t49.5 273q0 84 -11 156.5t-41 143.5t-77.5 121t-125.5 80.5t-179 30.5h-313v-428h250v-215 h-250v-421z" />
<glyph unicode="&#xd1;" horiz-adv-x="1497" d="M123 0v1536h153l863 -1057v1057h235v-1536h-153l-863 1059v-1059h-235zM340 1647l84 229q42 20 69 30.5t63.5 17.5t73.5 2t79 -21q71 -28 127.5 -38t113 -1t96.5 22.5t113 44.5l-78 -227q-44 -20 -71 -30.5t-64 -18.5t-74.5 -3t-80.5 21q-72 27 -129 37t-113 1.5 t-96.5 -22.5t-112.5 -44z" />
<glyph unicode="&#xd2;" horiz-adv-x="1572" d="M82 768q0 161 55.5 307.5t149.5 253t224.5 169.5t274.5 63q143 0 273.5 -63t225 -169.5t150.5 -253t56 -307.5t-56 -308t-150.5 -253t-225 -169t-273.5 -63q-144 0 -274.5 63t-224.5 169t-149.5 253t-55.5 308zM315 768q0 -114 37.5 -217t100.5 -177.5t150 -118.5 t183 -44t183 44t150 118.5t100.5 177.5t37.5 217q0 151 -63 279.5t-171.5 203t-236.5 74.5t-236.5 -74.5t-171.5 -203t-63 -279.5zM428 1968h297l225 -317h-235z" />
<glyph unicode="&#xd3;" horiz-adv-x="1572" d="M82 768q0 161 55.5 307.5t149.5 253t224.5 169.5t274.5 63q143 0 273.5 -63t225 -169.5t150.5 -253t56 -307.5t-56 -308t-150.5 -253t-225 -169t-273.5 -63q-144 0 -274.5 63t-224.5 169t-149.5 253t-55.5 308zM315 768q0 -114 37.5 -217t100.5 -177.5t150 -118.5 t183 -44t183 44t150 118.5t100.5 177.5t37.5 217q0 151 -63 279.5t-171.5 203t-236.5 74.5t-236.5 -74.5t-171.5 -203t-63 -279.5zM606 1651l225 317h297l-286 -317h-236z" />
<glyph unicode="&#xd4;" horiz-adv-x="1572" d="M82 768q0 161 55.5 307.5t149.5 253t224.5 169.5t274.5 63q143 0 273.5 -63t225 -169.5t150.5 -253t56 -307.5t-56 -308t-150.5 -253t-225 -169t-273.5 -63q-144 0 -274.5 63t-224.5 169t-149.5 253t-55.5 308zM315 768q0 -114 37.5 -217t100.5 -177.5t150 -118.5 t183 -44t183 44t150 118.5t100.5 177.5t37.5 217q0 151 -63 279.5t-171.5 203t-236.5 74.5t-236.5 -74.5t-171.5 -203t-63 -279.5zM401 1651l308 276h153l307 -276h-215l-168 145l-170 -145h-215z" />
<glyph unicode="&#xd5;" horiz-adv-x="1572" d="M82 768q0 161 55.5 307.5t149.5 253t224.5 169.5t274.5 63q143 0 273.5 -63t225 -169.5t150.5 -253t56 -307.5t-56 -308t-150.5 -253t-225 -169t-273.5 -63q-144 0 -274.5 63t-224.5 169t-149.5 253t-55.5 308zM315 768q0 -114 37.5 -217t100.5 -177.5t150 -118.5 t183 -44t183 44t150 118.5t100.5 177.5t37.5 217q0 151 -63 279.5t-171.5 203t-236.5 74.5t-236.5 -74.5t-171.5 -203t-63 -279.5zM383 1667l84 229q42 20 69 30.5t63.5 17.5t73.5 2t79 -21q71 -28 127.5 -38t113 -0.5t96.5 23t113 44.5l-78 -228q-58 -27 -93.5 -39t-88 -12 t-108.5 21q-72 27 -128.5 37t-113 1t-97 -22.5t-112.5 -44.5z" />
<glyph unicode="&#xd6;" horiz-adv-x="1572" d="M82 768q0 161 55.5 307.5t149.5 253t224.5 169.5t274.5 63q143 0 273.5 -63t225 -169.5t150.5 -253t56 -307.5t-56 -308t-150.5 -253t-225 -169t-273.5 -63q-144 0 -274.5 63t-224.5 169t-149.5 253t-55.5 308zM315 768q0 -114 37.5 -217t100.5 -177.5t150 -118.5 t183 -44t183 44t150 118.5t100.5 177.5t37.5 217q0 151 -63 279.5t-171.5 203t-236.5 74.5t-236.5 -74.5t-171.5 -203t-63 -279.5zM530 1774q0 42 30.5 72t72.5 30q43 0 72.5 -29.5t29.5 -72.5t-29.5 -73t-72.5 -30q-42 0 -72.5 30.5t-30.5 72.5zM838 1774q0 41 30.5 71.5 t71.5 30.5q42 0 72 -30t30 -72q0 -43 -29.5 -73t-72.5 -30q-42 0 -72 30.5t-30 72.5z" />
<glyph unicode="&#xd7;" horiz-adv-x="1120" d="M102 238l291 292l-291 291l166 166l293 -291l291 291l166 -166l-291 -291l291 -292l-166 -166l-291 290l-293 -290z" />
<glyph unicode="&#xd8;" horiz-adv-x="1597" d="M92 0l184 246q-176 220 -176 522q0 159 55 305t148.5 251.5t223.5 168.5t272 63q201 0 368 -120l76 100h262l-184 -246q84 -105 130 -239.5t46 -282.5q0 -160 -55.5 -306t-149 -251.5t-222.5 -168t-271 -62.5q-200 0 -369 118l-72 -98h-266zM332 768q0 -183 90 -328 l606 809q-106 70 -229 70q-127 0 -234.5 -73.5t-170 -200.5t-62.5 -277zM571 287q106 -70 228 -70q127 0 234.5 73t170 200t62.5 278q0 184 -90 326z" />
<glyph unicode="&#xd9;" horiz-adv-x="1433" d="M123 578v958h235v-958q0 -164 98 -263.5t259 -99.5q162 0 261 98t99 262v961h236v-961q0 -158 -75.5 -294t-213.5 -218.5t-307 -82.5t-306 83.5t-211.5 220t-74.5 294.5zM393 1968h297l225 -317h-235z" />
<glyph unicode="&#xda;" horiz-adv-x="1433" d="M123 578v958h235v-958q0 -164 98 -263.5t259 -99.5q162 0 261 98t99 262v961h236v-961q0 -158 -75.5 -294t-213.5 -218.5t-307 -82.5t-306 83.5t-211.5 220t-74.5 294.5zM559 1651l225 317h297l-286 -317h-236z" />
<glyph unicode="&#xdb;" horiz-adv-x="1433" d="M123 578v958h235v-958q0 -164 98 -263.5t259 -99.5q162 0 261 98t99 262v961h236v-961q0 -158 -75.5 -294t-213.5 -218.5t-307 -82.5t-306 83.5t-211.5 220t-74.5 294.5zM334 1651l307 276h154l307 -276h-215l-168 145l-170 -145h-215z" />
<glyph unicode="&#xdc;" horiz-adv-x="1433" d="M123 578v958h235v-958q0 -164 98 -263.5t259 -99.5q162 0 261 98t99 262v961h236v-961q0 -158 -75.5 -294t-213.5 -218.5t-307 -82.5t-306 83.5t-211.5 220t-74.5 294.5zM461 1774q0 42 30 72t72 30q43 0 73 -29.5t30 -72.5t-30 -73t-73 -30q-41 0 -71.5 30.5t-30.5 72.5 zM768 1774q0 41 30.5 71.5t71.5 30.5q42 0 72.5 -30t30.5 -72q0 -43 -30 -73t-73 -30q-42 0 -72 30.5t-30 72.5z" />
<glyph unicode="&#xdd;" horiz-adv-x="1429" d="M27 1536h276l412 -666l413 666h275l-569 -928v-608h-236v608zM563 1651l225 317h297l-286 -317h-236z" />
<glyph unicode="&#xde;" horiz-adv-x="1112" d="M123 0v1538h235v-266h201q131 0 240 -66t168 -169.5t59 -217.5q0 -56 -17 -116.5t-55 -121t-91 -108.5t-132 -78t-172 -30h-201v-365h-235zM358 600h201q104 0 168 59t64 160q0 105 -61 161t-171 56h-201v-436z" />
<glyph unicode="&#xdf;" horiz-adv-x="1251" d="M123 31v985q0 298 162 462q118 120 282 131q153 9 266 -79q129 -100 137 -277l1 -24q0 -64 -29.5 -118.5t-71.5 -91.5t-83.5 -68.5t-71 -64t-29.5 -63.5q0 -25 21 -45.5t54.5 -34.5t77 -32t89 -36.5t89 -48.5t77 -67t54.5 -94t21 -127q0 -109 -35 -186t-91 -115.5 t-128.5 -56.5t-144 -15.5t-140.5 14.5t-116.5 26.5t-73.5 27.5v241q494 -207 494 64q0 41 -26.5 71t-69 49.5t-94.5 38t-103.5 43.5t-94 58.5t-69 91t-26.5 133.5q0 51 29.5 99t71 85t83 72t71 74t29.5 76q0 96 -69 137q-65 39 -143 4q-95 -42 -138 -169q-27 -82 -27 -185 v-1067z" />
<glyph unicode="&#xe0;" horiz-adv-x="1011" d="M82 315q0 98 42.5 171t116.5 111t174 46.5t216 -22.5q0 58 -13 97.5t-44 62t-68 33t-97 8t-119 -11t-145 -24.5l43 220q49 14 102.5 22.5t116.5 10.5t122 -5t115.5 -29.5t99 -58.5t71.5 -95.5t35 -137.5q3 -52 -1 -118t-6.5 -112t1.5 -97t25 -99t61 -94l-74 -213 q-59 7 -131 83q-51 -39 -123 -60t-135 -21q-101 0 -178 29t-120.5 78t-65 106t-21.5 120zM195 1481h297l225 -318h-236zM317 315q0 -64 47 -93.5t122.5 -19.5t156.5 56q-16 76 -16 156q-58 19 -109.5 26t-98.5 1t-74.5 -38t-27.5 -88z" />
<glyph unicode="&#xe1;" horiz-adv-x="1011" d="M82 315q0 98 42.5 171t116.5 111t174 46.5t216 -22.5q0 58 -13 97.5t-44 62t-68 33t-97 8t-119 -11t-145 -24.5l43 220q49 14 102.5 22.5t116.5 10.5t122 -5t115.5 -29.5t99 -58.5t71.5 -95.5t35 -137.5q3 -52 -1 -118t-6.5 -112t1.5 -97t25 -99t61 -94l-74 -213 q-59 7 -131 83q-51 -39 -123 -60t-135 -21q-101 0 -178 29t-120.5 78t-65 106t-21.5 120zM287 1163l225 318h297l-287 -318h-235zM317 315q0 -64 47 -93.5t122.5 -19.5t156.5 56q-16 76 -16 156q-58 19 -109.5 26t-98.5 1t-74.5 -38t-27.5 -88z" />
<glyph unicode="&#xe2;" horiz-adv-x="1011" d="M82 315q0 98 42.5 171t116.5 111t174 46.5t216 -22.5q0 58 -13 97.5t-44 62t-68 33t-97 8t-119 -11t-145 -24.5l43 220q49 14 102.5 22.5t116.5 10.5t122 -5t115.5 -29.5t99 -58.5t71.5 -95.5t35 -137.5q3 -52 -1 -118t-6.5 -112t1.5 -97t25 -99t61 -94l-74 -213 q-59 7 -131 83q-51 -39 -123 -60t-135 -21q-101 0 -178 29t-120.5 78t-65 106t-21.5 120zM123 1163l307 277h154l307 -277h-215l-168 146l-170 -146h-215zM317 315q0 -64 47 -93.5t122.5 -19.5t156.5 56q-16 76 -16 156q-58 19 -109.5 26t-98.5 1t-74.5 -38t-27.5 -88z" />
<glyph unicode="&#xe4;" horiz-adv-x="1011" d="M82 315q0 98 42.5 171t116.5 111t174 46.5t216 -22.5q0 58 -13 97.5t-44 62t-68 33t-97 8t-119 -11t-145 -24.5l43 220q49 14 102.5 22.5t116.5 10.5t122 -5t115.5 -29.5t99 -58.5t71.5 -95.5t35 -137.5q3 -52 -1 -118t-6.5 -112t1.5 -97t25 -99t61 -94l-74 -213 q-59 7 -131 83q-51 -39 -123 -60t-135 -21q-101 0 -178 29t-120.5 78t-65 106t-21.5 120zM266 1266q0 42 30.5 72t72.5 30q43 0 72.5 -29.5t29.5 -72.5t-29.5 -73t-72.5 -30q-42 0 -72.5 30.5t-30.5 72.5zM317 315q0 -64 47 -93.5t122.5 -19.5t156.5 56q-16 76 -16 156 q-58 19 -109.5 26t-98.5 1t-74.5 -38t-27.5 -88zM573 1266q0 41 31 71.5t72 30.5q42 0 72 -30t30 -72q0 -43 -29.5 -73t-72.5 -30q-42 0 -72.5 30.5t-30.5 72.5z" />
<glyph unicode="&#xe5;" horiz-adv-x="1011" d="M82 315q0 98 42.5 171t116.5 111t174 46.5t216 -22.5q0 58 -13 97.5t-44 62t-68 33t-97 8t-119 -11t-145 -24.5l43 220q49 14 102.5 22.5t116.5 10.5t122 -5t115.5 -29.5t99 -58.5t71.5 -95.5t35 -137.5q3 -52 -1 -118t-6.5 -112t1.5 -97t25 -99t61 -94l-74 -213 q-59 7 -131 83q-51 -39 -123 -60t-135 -21q-101 0 -178 29t-120.5 78t-65 106t-21.5 120zM276 1393q0 95 66 160t160 65t159.5 -65t65.5 -160t-65.5 -160.5t-159.5 -65.5t-160 65.5t-66 160.5zM317 315q0 -64 47 -93.5t122.5 -19.5t156.5 56q-16 76 -16 156 q-58 19 -109.5 26t-98.5 1t-74.5 -38t-27.5 -88zM430 1393q0 -29 21.5 -50.5t50.5 -21.5t50 21.5t21 50.5t-21 50t-50 21t-50.5 -21t-21.5 -50z" />
<glyph unicode="&#xe6;" horiz-adv-x="1646" d="M82 315q0 98 42.5 171t116.5 111t174 46.5t216 -22.5q0 58 -13 97.5t-44 62t-68 33t-97 8t-119 -11t-145 -24.5l43 220q68 19 143 27t158.5 4.5t159.5 -34.5t125 -88q132 129 344 129q96 0 173.5 -29.5t128.5 -80t84.5 -117t45 -141.5t5.5 -152t-29 -149h-645 q13 -63 70.5 -106t139.5 -58.5t185 0t201 63.5l-31 -251q-436 -122 -653 71q-172 -112 -326 -112q-101 0 -178 29t-120.5 78t-65 106t-21.5 120zM317 315q0 -63 51.5 -90.5t132.5 -13.5t165 65q-22 56 -37 138q-58 19 -110 26t-99 1t-75 -38t-28 -88zM868 610h451 q8 71 -52 134t-149 63q-200 0 -250 -197z" />
<glyph unicode="&#xe7;" horiz-adv-x="935" d="M82 510q0 195 91 333t252 182.5t382 -26.5l47 -251q-109 57 -209 67t-172 -22.5t-115 -106t-43 -176.5q0 -82 27 -146t77.5 -102t116.5 -52.5t148.5 2t169.5 62.5l-47 -251q-87 -30 -170 -39q20 -48 20 -97q0 -95 -65.5 -160t-159.5 -65h-18l-49 168q25 -14 67 -14 q29 0 50.5 21t21.5 50q0 65 -103 99l5 16q-152 47 -238 182.5t-86 325.5z" />
<glyph unicode="&#xe8;" horiz-adv-x="1105" d="M82 510q0 240 134.5 387t361.5 147q114 0 202 -42t138.5 -111t76 -156.5t22 -180t-31.5 -179.5h-645q13 -63 70.5 -106t139.5 -58.5t185 0t201 63.5l-31 -251q-133 -37 -246.5 -44t-196.5 12t-149 58.5t-108.5 92t-71 116t-40 126t-11.5 126.5zM248 1481h299l225 -318 h-235zM328 610h450q8 71 -51.5 134t-148.5 63q-200 0 -250 -197z" />
<glyph unicode="&#xe9;" horiz-adv-x="1105" d="M82 510q0 240 134.5 387t361.5 147q114 0 202 -42t138.5 -111t76 -156.5t22 -180t-31.5 -179.5h-645q13 -63 70.5 -106t139.5 -58.5t185 0t201 63.5l-31 -251q-133 -37 -246.5 -44t-196.5 12t-149 58.5t-108.5 92t-71 116t-40 126t-11.5 126.5zM328 610h450 q8 71 -51.5 134t-148.5 63q-200 0 -250 -197zM416 1163l225 318h297l-287 -318h-235z" />
<glyph unicode="&#xea;" horiz-adv-x="1105" d="M82 510q0 240 134.5 387t361.5 147q114 0 202 -42t138.5 -111t76 -156.5t22 -180t-31.5 -179.5h-645q13 -63 70.5 -106t139.5 -58.5t185 0t201 63.5l-31 -251q-133 -37 -246.5 -44t-196.5 12t-149 58.5t-108.5 92t-71 116t-40 126t-11.5 126.5zM205 1163l307 277h154 l307 -277h-215l-168 146l-170 -146h-215zM328 610h450q8 71 -51.5 134t-148.5 63q-200 0 -250 -197z" />
<glyph unicode="&#xeb;" horiz-adv-x="1105" d="M82 510q0 240 134.5 387t361.5 147q114 0 202 -42t138.5 -111t76 -156.5t22 -180t-31.5 -179.5h-645q13 -63 70.5 -106t139.5 -58.5t185 0t201 63.5l-31 -251q-133 -37 -246.5 -44t-196.5 12t-149 58.5t-108.5 92t-71 116t-40 126t-11.5 126.5zM313 1266q0 42 30.5 72 t72.5 30q43 0 72.5 -29.5t29.5 -72.5t-29.5 -73t-72.5 -30q-42 0 -72.5 30.5t-30.5 72.5zM328 610h450q8 71 -51.5 134t-148.5 63q-200 0 -250 -197zM621 1266q0 41 30.5 71.5t71.5 30.5q42 0 72 -30t30 -72q0 -43 -29.5 -73t-72.5 -30q-41 0 -71.5 30.5t-30.5 72.5z" />
<glyph unicode="&#xec;" d="M-94 1481h299l225 -318h-235zM145 0v993l234 51v-1044h-234z" />
<glyph unicode="&#xed;" d="M94 1163l225 318h297l-286 -318h-236zM145 0v993l234 51v-1044h-234z" />
<glyph unicode="&#xee;" d="M-123 1163l307 277h154l307 -277h-215l-168 146l-170 -146h-215zM145 0v993l234 51v-1044h-234z" />
<glyph unicode="&#xef;" horiz-adv-x="481" d="M-16 1266q0 42 31 72t73 30q43 0 72.5 -29.5t29.5 -72.5t-29.5 -73t-72.5 -30q-42 0 -73 30.5t-31 72.5zM125 0v993l233 51v-1044h-233zM293 1266q0 41 30.5 71.5t71.5 30.5q43 0 73 -30t30 -72q0 -43 -30 -73t-73 -30q-41 0 -71.5 30.5t-30.5 72.5z" />
<glyph unicode="&#xf0;" horiz-adv-x="1159" d="M82 512q0 143 64 263.5t179.5 191.5t256.5 71q76 0 127 -17.5t94 -55.5q0 171 -86 278l-154 -129l-119 141l109 91q-123 28 -264 -23l86 231q203 50 379 -41l161 136l119 -140l-133 -112q135 -154 135 -391v-781q-60 -73 -119 -122t-146 -83t-189 -34q-141 0 -256.5 71.5 t-179.5 192t-64 262.5zM317 512q0 -125 72.5 -208t192.5 -83q116 0 221 127v320q-45 61 -102.5 98t-118.5 37q-120 0 -192.5 -82.5t-72.5 -208.5z" />
<glyph unicode="&#xf1;" horiz-adv-x="1116" d="M123 0v993l235 51v-129q197 144 338.5 136t219 -138.5t77.5 -349.5v-563h-235v563q0 69 -16.5 121.5t-50.5 80.5t-80.5 28t-112 -39t-140.5 -117v-637h-235zM154 1176l84 229q42 20 69 30.5t63 17.5t73 2t79 -21q71 -28 127.5 -38t113.5 -1t97.5 22.5t112.5 44.5 l-78 -227q-44 -20 -71 -30.5t-64.5 -18.5t-75 -3t-80.5 21q-72 27 -128.5 37t-112.5 1.5t-96.5 -22t-112.5 -44.5z" />
<glyph unicode="&#xf2;" horiz-adv-x="1179" d="M82 512q0 146 65 268t181.5 193t261.5 71t261.5 -71t181.5 -193t65 -268q0 -145 -65 -267t-182 -193.5t-261 -71.5t-261 71.5t-182 193.5t-65 267zM248 1481h299l225 -318h-235zM317 512q0 -123 79.5 -210t193.5 -87q113 0 192.5 87t79.5 210t-79.5 210t-192.5 87 q-114 0 -193.5 -87t-79.5 -210z" />
<glyph unicode="&#xf3;" horiz-adv-x="1179" d="M82 512q0 146 65 268t181.5 193t261.5 71t261.5 -71t181.5 -193t65 -268q0 -145 -65 -267t-182 -193.5t-261 -71.5t-261 71.5t-182 193.5t-65 267zM317 512q0 -123 79.5 -210t193.5 -87q113 0 192.5 87t79.5 210t-79.5 210t-192.5 87q-114 0 -193.5 -87t-79.5 -210z M416 1163l225 318h297l-287 -318h-235z" />
<glyph unicode="&#xf4;" horiz-adv-x="1179" d="M82 512q0 146 65 268t181.5 193t261.5 71t261.5 -71t181.5 -193t65 -268q0 -145 -65 -267t-182 -193.5t-261 -71.5t-261 71.5t-182 193.5t-65 267zM205 1163l307 277h154l307 -277h-215l-168 146l-170 -146h-215zM317 512q0 -123 79.5 -210t193.5 -87q113 0 192.5 87 t79.5 210t-79.5 210t-192.5 87q-114 0 -193.5 -87t-79.5 -210z" />
<glyph unicode="&#xf5;" horiz-adv-x="1179" d="M82 512q0 146 65 268t181.5 193t261.5 71t261.5 -71t181.5 -193t65 -268q0 -145 -65 -267t-182 -193.5t-261 -71.5t-261 71.5t-182 193.5t-65 267zM180 1176l84 229q42 20 69 30.5t63.5 17.5t73.5 2t79 -21q71 -28 127.5 -38t113 -1t96.5 22.5t113 44.5l-77 -227 q-44 -20 -71 -30.5t-64.5 -18.5t-75 -3t-80.5 21q-72 27 -129 37t-113 1.5t-96.5 -22.5t-112.5 -44zM317 512q0 -123 79.5 -210t193.5 -87q113 0 192.5 87t79.5 210t-79.5 210t-192.5 87q-114 0 -193.5 -87t-79.5 -210z" />
<glyph unicode="&#xf6;" horiz-adv-x="1179" d="M82 512q0 146 65 268t181.5 193t261.5 71t261.5 -71t181.5 -193t65 -268q0 -145 -65 -267t-182 -193.5t-261 -71.5t-261 71.5t-182 193.5t-65 267zM317 512q0 -123 79.5 -210t193.5 -87q113 0 192.5 87t79.5 210t-79.5 210t-192.5 87q-114 0 -193.5 -87t-79.5 -210z M334 1266q0 42 30 72t72 30q43 0 73 -29.5t30 -72.5t-30 -73t-73 -30q-42 0 -72 30.5t-30 72.5zM641 1266q0 41 30.5 71.5t71.5 30.5q43 0 73 -30t30 -72q0 -43 -30 -73t-73 -30q-41 0 -71.5 30.5t-30.5 72.5z" />
<glyph unicode="&#xf7;" horiz-adv-x="1310" d="M61 459v235h1188v-235h-1188zM502 131q0 63 44.5 108.5t108.5 45.5q63 0 108.5 -45.5t45.5 -108.5q0 -64 -45.5 -109t-108.5 -45q-64 0 -108.5 44.5t-44.5 109.5zM502 1022q0 63 44.5 108.5t108.5 45.5q63 0 108.5 -45.5t45.5 -108.5q0 -64 -45.5 -109t-108.5 -45 q-64 0 -108.5 44.5t-44.5 109.5z" />
<glyph unicode="&#xf8;" horiz-adv-x="1161" d="M51 0l127 168q-117 145 -117 344q0 146 65 268t181.5 193t261.5 71q124 0 226 -51l24 31h262l-123 -164q119 -147 119 -348q0 -145 -65 -267t-182 -193.5t-261 -71.5q-124 0 -227 53l-25 -33h-266zM297 512q0 -70 33 -141l319 426q-40 12 -80 12q-114 0 -193 -87 t-79 -210zM487 229q38 -14 82 -14q113 0 193 87t80 210q0 80 -35 145z" />
<glyph unicode="&#xf9;" horiz-adv-x="1095" d="M123 414v590l235 51v-639q0 -57 12 -103t41 -75.5t71.5 -30.5t108.5 42t146 132v643h236v-1024h-236v102q-121 -86 -222.5 -117.5t-173 -12t-121.5 79t-73.5 151.5t-23.5 211zM240 1481h299l225 -318h-236z" />
<glyph unicode="&#xfa;" horiz-adv-x="1095" d="M123 414v590l235 51v-639q0 -57 12 -103t41 -75.5t71.5 -30.5t108.5 42t146 132v643h236v-1024h-236v102q-121 -86 -222.5 -117.5t-173 -12t-121.5 79t-73.5 151.5t-23.5 211zM408 1163l225 318h297l-287 -318h-235z" />
<glyph unicode="&#xfb;" horiz-adv-x="1095" d="M123 414v590l235 51v-639q0 -57 12 -103t41 -75.5t71.5 -30.5t108.5 42t146 132v643h236v-1024h-236v102q-121 -86 -222.5 -117.5t-173 -12t-121.5 79t-73.5 151.5t-23.5 211zM178 1163l307 277h154l307 -277h-215l-168 146l-170 -146h-215z" />
<glyph unicode="&#xfc;" horiz-adv-x="1095" d="M123 414v590l235 51v-639q0 -57 12 -103t41 -75.5t71.5 -30.5t108.5 42t146 132v643h236v-1024h-236v102q-121 -86 -222.5 -117.5t-173 -12t-121.5 79t-73.5 151.5t-23.5 211zM297 1266q0 42 30 72t72 30q43 0 73 -29.5t30 -72.5t-30 -73t-73 -30q-41 0 -71.5 30.5 t-30.5 72.5zM604 1266q0 41 31 71.5t72 30.5q42 0 72 -30t30 -72q0 -43 -29.5 -73t-72.5 -30q-42 0 -72.5 30.5t-30.5 72.5z" />
<glyph unicode="&#xfd;" horiz-adv-x="1056" d="M27 1024h245l256 -668l256 668h246l-444 -1186q-29 -75 -62 -129.5t-62.5 -86t-71.5 -53t-72 -30.5t-80 -20l-82 219q30 5 47 8.5t37 12t30 14.5t25 24.5t23 32.5t23 48t26 62t32 83zM332 1163l225 318h297l-287 -318h-235z" />
<glyph unicode="&#xfe;" horiz-adv-x="1083" d="M123 -430v1864l235 51v-465q84 23 164 19.5t151.5 -24t131.5 -66t103.5 -106.5t68 -146.5t24.5 -184.5q0 -107 -35 -201t-95.5 -159.5t-142.5 -110t-175.5 -52t-194.5 14.5v-383zM358 252q56 -28 115 -32t110.5 16t93 57.5t65.5 94.5t24 124q0 69 -24 127.5t-65 95.5 t-93 56t-111 14.5t-115 -33.5v-520z" />
<glyph unicode="&#xff;" horiz-adv-x="1056" d="M27 1024h245l256 -668l256 668h246l-444 -1186q-29 -75 -62 -129.5t-62.5 -86t-71.5 -53t-72 -30.5t-80 -20l-82 219q30 5 47 8.5t37 12t30 14.5t25 24.5t23 32.5t23 48t26 62t32 83zM272 1266q0 42 30.5 72t72.5 30q43 0 72.5 -29.5t29.5 -72.5t-29.5 -73t-72.5 -30 q-42 0 -72.5 30.5t-30.5 72.5zM580 1266q0 41 30.5 71.5t71.5 30.5q42 0 72 -30t30 -72q0 -43 -29.5 -73t-72.5 -30q-42 0 -72 30.5t-30 72.5z" />
<glyph unicode="&#x152;" horiz-adv-x="2150" d="M82 768q0 159 55 304t148.5 250.5t223 167.5t271.5 62q188 0 346 -102v86h871l51 -236h-686v-413h584v-236h-584v-415h686l-51 -236h-871v86q-158 -102 -346 -102q-143 0 -272 62t-222.5 167t-148.5 250t-55 305zM317 768q0 -242 129 -395.5t334 -153.5q65 0 115 14 t95 50.5t74 97t45.5 158t16.5 229.5t-16.5 229.5t-45.5 158t-74 97t-95 50.5t-115 14q-205 0 -334 -153.5t-129 -395.5z" />
<glyph unicode="&#x153;" horiz-adv-x="1869" d="M82 512q0 143 67.5 264.5t182.5 191.5t250 70q108 0 204.5 -46.5t165.5 -127.5q137 180 389 180q96 0 173.5 -29.5t128.5 -80t84.5 -117t45 -141.5t5.5 -152t-29 -149h-645q13 -63 70.5 -106t139.5 -58.5t185 0t201 63.5l-31 -251q-138 -38 -255 -44.5t-203.5 16.5 t-149 64t-107.5 101q-71 -81 -167.5 -127.5t-204.5 -46.5q-135 0 -250 70t-182.5 191.5t-67.5 264.5zM317 512q0 -120 78 -205.5t187 -85.5q110 0 187 85.5t77 205.5q0 122 -77 206.5t-187 84.5q-109 0 -187 -85t-78 -206zM1092 610h450q8 71 -52 134t-149 63 q-199 0 -249 -197z" />
<glyph unicode="&#x178;" horiz-adv-x="1429" d="M27 1536h276l412 -666l413 666h275l-569 -928v-608h-236v608zM459 1774q0 42 30 72t72 30q43 0 73 -29.5t30 -72.5t-30 -73t-73 -30q-41 0 -71.5 30.5t-30.5 72.5zM766 1774q0 41 30.5 71.5t71.5 30.5q42 0 72.5 -30t30.5 -72q0 -43 -30 -73t-73 -30q-42 0 -72 30.5 t-30 72.5z" />
<glyph unicode="&#x2c6;" horiz-adv-x="972" d="M102 1487l308 276h153l307 -276h-215l-168 145l-170 -145h-215z" />
<glyph unicode="&#x2dc;" horiz-adv-x="1024" d="M102 1503l84 230q55 27 91 38.5t87 11t107 -21.5q71 -28 127.5 -38t113.5 -0.5t97 23t113 44.5l-78 -227q-44 -20 -71 -30.5t-64.5 -18.5t-75 -3t-80.5 21q-72 27 -128.5 37t-113 1t-97 -22.5t-112.5 -44.5z" />
<glyph unicode="&#x2000;" horiz-adv-x="1050" />
<glyph unicode="&#x2001;" horiz-adv-x="2101" />
<glyph unicode="&#x2002;" horiz-adv-x="1050" />
<glyph unicode="&#x2003;" horiz-adv-x="2101" />
<glyph unicode="&#x2004;" horiz-adv-x="700" />
<glyph unicode="&#x2005;" horiz-adv-x="525" />
<glyph unicode="&#x2006;" horiz-adv-x="350" />
<glyph unicode="&#x2007;" horiz-adv-x="350" />
<glyph unicode="&#x2008;" horiz-adv-x="262" />
<glyph unicode="&#x2009;" horiz-adv-x="420" />
<glyph unicode="&#x200a;" horiz-adv-x="116" />
<glyph unicode="&#x2010;" horiz-adv-x="819" d="M82 494v235h655v-235h-655z" />
<glyph unicode="&#x2011;" horiz-adv-x="819" d="M82 494v235h655v-235h-655z" />
<glyph unicode="&#x2012;" horiz-adv-x="819" d="M82 494v235h655v-235h-655z" />
<glyph unicode="&#x2013;" horiz-adv-x="1085" d="M82 494v235h922v-235h-922z" />
<glyph unicode="&#x2014;" horiz-adv-x="1597" d="M82 494v235h1434v-235h-1434z" />
<glyph unicode="&#x2018;" horiz-adv-x="333" d="M61 1260l99 419h256l-160 -419h-195z" />
<glyph unicode="&#x2019;" horiz-adv-x="333" d="M61 1260l99 419h256l-160 -419h-195z" />
<glyph unicode="&#x201a;" horiz-adv-x="337" d="M-20 -201l163 420h277l-225 -420h-215z" />
<glyph unicode="&#x201c;" horiz-adv-x="661" d="M61 1260l99 419h256l-160 -419h-195zM389 1260l98 419h256l-159 -419h-195z" />
<glyph unicode="&#x201d;" horiz-adv-x="661" d="M61 1260l99 419h256l-160 -419h-195zM389 1260l98 419h256l-159 -419h-195z" />
<glyph unicode="&#x201e;" horiz-adv-x="337" d="M-20 -201l163 420h277l-225 -420h-215z" />
<glyph unicode="&#x2022;" horiz-adv-x="901" d="M225 600q0 92 66.5 158.5t159.5 66.5q92 0 158.5 -66.5t66.5 -158.5q0 -93 -66 -159t-159 -66q-94 0 -160 65.5t-66 159.5z" />
<glyph unicode="&#x2026;" horiz-adv-x="1351" d="M51 131q0 63 45 108.5t109 45.5q63 0 108 -45.5t45 -108.5q0 -64 -45 -109t-108 -45q-65 0 -109.5 44.5t-44.5 109.5zM522 131q0 63 45 108.5t109 45.5q63 0 108 -45.5t45 -108.5q0 -64 -45 -109t-108 -45q-64 0 -109 44.5t-45 109.5zM993 131q0 63 45 108.5t109 45.5 q63 0 108 -45.5t45 -108.5q0 -64 -45 -109t-108 -45q-65 0 -109.5 44.5t-44.5 109.5z" />
<glyph unicode="&#x202f;" horiz-adv-x="420" />
<glyph unicode="&#x2039;" horiz-adv-x="788" d="M51 508l473 463l172 -176l-301 -287l301 -287l-172 -176z" />
<glyph unicode="&#x203a;" horiz-adv-x="788" d="M92 221l287 287l-287 287l158 176l487 -463l-487 -463z" />
<glyph unicode="&#x205f;" horiz-adv-x="525" />
<glyph unicode="&#x20ac;" horiz-adv-x="1392" d="M92 483v236h103v45q0 31 2 47h-105v236h146q71 225 241 360t375 141q162 3 348 -45l47 -243q-144 47 -268.5 50t-215.5 -32.5t-156 -93t-109 -137.5h508v-236h-576q-2 -16 -2 -47l2 -45h576v-236h-508q43 -80 108 -138.5t156.5 -94.5t216 -32.5t268.5 50.5l-47 -243 q-186 -48 -348 -45q-205 6 -375.5 141.5t-242.5 361.5h-144z" />
<glyph unicode="&#x25fc;" horiz-adv-x="1024" d="M0 0v1024h1024v-1024h-1024z" />
</font>
</defs>
</svg>
